<?xml version="1.0" encoding="UTF-8"?>
<svg width="64px" height="64px" viewBox="0 0 64 64" version="1.1" xmlns="http://www.w3.org/2000/svg" xmlns:xlink="http://www.w3.org/1999/xlink">
    <title>audiovisio/feeling</title>
    <g id="audiovisio/feeling" stroke="none" stroke-width="1" fill="none" fill-rule="evenodd">
        <g id="Group" transform="translate(19.000000, 15.000000)">
            <path d="M10.6436647,27.6887183 C11.3803845,27.8717849 12.8635229,29.7132287 15.09308,33.21305 L24.5546835,29.1537143 C23.5734854,26.0212639 22.9126797,23.7756263 22.5722662,22.4168013 C21.7720886,19.2227401 27.5863019,16.2886926 26.0834208,8.8328085 C24.5288449,1.12046371 18.5464285,-0.262549258 12.7317168,0.0372667693 C6.9170051,0.337082797 2.49228851,6.26918619 2.49228851,12.2338615 C2.49228851,14.1976919 -3.11536064,18.2451584 2.49228851,19.2850897 C3.18684975,22.554281 2.14235485,25.7313806 4.75937154,26.6087183 C8.19833038,27.7616068 8.36756266,27.1231327 10.6436647,27.6887183 Z" id="Oval" fill="#1E1E1E"></path>
            <polygon id="Star" fill="#FFCD8E" transform="translate(9.180000, 10.297267) rotate(-11.000000) translate(-9.180000, -10.297267) " points="9.18 11.6472668 7.59297982 12.4816127 7.8960737 10.7144397 6.61214741 9.46292088 8.38648991 9.20509383 9.18 7.59726677 9.97351009 9.20509383 11.7478526 9.46292088 10.4639263 10.7144397 10.7670202 12.4816127"></polygon>
            <polygon id="Rectangle" fill="#9FE7FF" transform="translate(18.360000, 13.255268) rotate(-20.000000) translate(-18.360000, -13.255268) " points="15.12 12.4332701 15.12 10.8372668 16.6768247 10.8372668 18.36 12.9089585 20.1292764 10.8372668 21.6 10.8372668 21.6 12.4332701 21.6 15.6732701 15.12 15.6732701"></polygon>
            <path d="M15.6626321,8.67726677 C16.9826345,7.63370803 17.8532794,6.54881905 18.274567,5.42259981 C18.5643186,4.64801287 18.0820255,3.61484515 17.3555251,3.35407216 C16.6655491,3.10640937 16.1012514,3.45769732 15.6626321,4.40793601 C15.1855461,3.45769732 14.592817,3.10640937 13.884445,3.35407216 C12.8218869,3.72556634 12.8920709,4.70730628 13.0514356,5.42259981 C13.2928095,6.50598434 14.1632084,7.59087333 15.6626321,8.67726677 Z" id="Oval" fill="#FF7171" transform="translate(15.660000, 5.977267) rotate(10.000000) translate(-15.660000, -5.977267) "></path>
        </g>
    </g>
</svg>