<?xml version="1.0" encoding="UTF-8"?>
<svg viewBox="0 0 558 335" version="1.1" xmlns="http://www.w3.org/2000/svg" xmlns:xlink="http://www.w3.org/1999/xlink">
    <title>auidovisio/title-illustration</title>
    <g id="auidovisio/title-illustration" stroke="none" stroke-width="1" fill="none" fill-rule="evenodd">
        <polyline id="Path" stroke="#000000" stroke-width="5" points="91.3936 122.5726 271.732 122.5726 311.732 80.3547 404 80.3547"></polyline>
        <polyline id="Path" stroke="#000000" stroke-width="5" points="176.891 123.3491 216.891 170.52 461.776 170.52"></polyline>
        <polyline id="Path" stroke="#000000" stroke-width="5" points="268.196545 170.52 347.461 259.528 425.883 259.528"></polyline>
        <g id="icons/audio-on" transform="translate(33.000000, 87.000000)" fill="#000000">
            <path d="M33.6490169,14.8519886 L18.504,27.1485 L12,27.14991 L10.65,28.49991 L10.65,41.09991 L11.9999826,42.44991 L18.5025,42.4485 L33.6490162,54.7480108 L35.85,53.7 L35.85,15.9 L33.6490169,14.8519886 Z M33.15,18.7335 L33.15,50.865 L19.8337238,40.0519892 L18.9827574,39.75 L13.35,39.7485 L13.35,29.8485 L18.98283,29.84991 L19.8338131,29.5479214 L33.15,18.7335 Z" id="speaker" fill-rule="nonzero"></path>
            <path d="M56.09451,26.7 L58.79451,26.7 L58.79451,15 L56.09451,15 L56.09451,26.7 Z M58.79451,29.4 L56.09451,29.4 L56.09451,41.1 L58.79451,41.1 L58.79451,29.4 Z M48.9,33.00549 L51.6,33.00549 L51.6,21.30549 L48.9,21.30549 L48.9,33.00549 Z M51.6,35.70549 L48.9,35.70549 L48.9,47.40549 L51.6,47.40549 L51.6,35.70549 Z M56.09451,55.5 L58.79451,55.5 L58.79451,43.8 L56.09451,43.8 L56.09451,55.5 Z" id="sound"></path>
        </g>
        <g id="Group" transform="translate(411.000000, 49.000000)">
            <g transform="translate(15.000000, 16.000000)">
                <circle id="Oval" fill="#68EC90" style="mix-blend-mode: lighten;" cx="17.5" cy="10.5" r="10.5"></circle>
                <circle id="Oval-Copy" fill="#3A6EEB" style="mix-blend-mode: lighten;" cx="10.5" cy="21.5" r="10.5"></circle>
                <circle id="Oval-Copy-2" fill="#EA5475" style="mix-blend-mode: lighten;" cx="23.5" cy="21.5" r="10.5"></circle>
            </g>
        </g>
        <g id="Group" transform="translate(461.000000, 134.000000)">
            <g transform="translate(19.000000, 15.000000)">
                <path d="M10.6436647,27.6887183 C11.3803845,27.8717849 12.8635229,29.7132287 15.09308,33.21305 L26.0834208,28.0931215 C24.7303406,25.7231988 23.8835938,23.858825 23.5431804,22.5 C22.7430028,19.3059388 27.5863019,16.2886926 26.0834208,8.8328085 C24.5288449,1.12046371 18.5464285,-0.262549258 12.7317168,0.0372667693 C6.9170051,0.337082797 2.49228851,6.26918619 2.49228851,12.2338615 C2.49228851,14.1976919 -3.11536064,18.2451584 2.49228851,19.2850897 C3.18684975,22.554281 2.14235485,25.7313806 4.75937154,26.6087183 C8.19833038,27.7616068 8.36756266,27.1231327 10.6436647,27.6887183 Z" id="Oval" fill="#1E1E1E"></path>
                <polygon id="Star" fill="#FFCD8E" transform="translate(9.180000, 10.297267) rotate(-11.000000) translate(-9.180000, -10.297267) " points="9.18 11.6472668 7.59297982 12.4816127 7.8960737 10.7144397 6.61214741 9.46292088 8.38648991 9.20509383 9.18 7.59726677 9.97351009 9.20509383 11.7478526 9.46292088 10.4639263 10.7144397 10.7670202 12.4816127"></polygon>
                <polygon id="Rectangle" fill="#9FE7FF" transform="translate(18.360000, 13.255268) rotate(-20.000000) translate(-18.360000, -13.255268) " points="15.12 12.4332701 15.12 10.8372668 16.6768247 10.8372668 18.36 12.9089585 20.1292764 10.8372668 21.6 10.8372668 21.6 12.4332701 21.6 15.6732701 15.12 15.6732701"></polygon>
                <path d="M15.6626321,8.67726677 C16.9826345,7.63370803 17.8532794,6.54881905 18.274567,5.42259981 C18.5643186,4.64801287 18.0820255,3.61484515 17.3555251,3.35407216 C16.6655491,3.10640937 16.1012514,3.45769732 15.6626321,4.40793601 C15.1855461,3.45769732 14.592817,3.10640937 13.884445,3.35407216 C12.8218869,3.72556634 12.8920709,4.70730628 13.0514356,5.42259981 C13.2928095,6.50598434 14.1632084,7.59087333 15.6626321,8.67726677 Z" id="Oval" fill="#FF7171" transform="translate(15.660000, 5.977267) rotate(10.000000) translate(-15.660000, -5.977267) "></path>
            </g>
        </g>
        <g id="Group" transform="translate(441.000000, 219.000000)">
            <g id="Group-4" transform="translate(10.000000, 16.000000)">
                <g id="Group">
                    <g id="Group-3" transform="translate(8.000000, 0.427009)">
                        <polygon id="Path" fill="#D1F6EA" points="12.6844396 1.0658141e-14 -3.55271368e-15 20.4717898 12.6844396 28.072331"></polygon>
                        <polygon id="Path" fill="#609084" transform="translate(19.097787, 14.036165) scale(-1, 1) translate(-19.097787, -14.036165) " points="25.5111348 -8.8817842e-15 12.6844396 20.5658928 25.5111348 28.072331"></polygon>
                    </g>
                    <circle id="Oval" fill="#C06D80" cx="9" cy="23.5" r="8.5"></circle>
                </g>
                <g id="Group-2" transform="translate(34.500000, 21.500000) scale(-1, 1) rotate(-270.000000) translate(-34.500000, -21.500000) translate(25.500000, 12.000000)">
                    <polygon id="Rectangle" fill="#D5F2FF" points="-1.41553436e-14 0 5 6 5 19 -1.41553436e-14 13"></polygon>
                    <polygon id="Rectangle" fill="#A6DBF8" transform="translate(9.000000, 3.000000) scale(1, -1) rotate(-270.000000) translate(-9.000000, -3.000000) " points="6 -6 12 -1 12 12 6.39373873 7.3281156 6 7"></polygon>
                    <rect id="Rectangle" fill="#5B6D8B" x="5" y="6" width="13" height="13"></rect>
                </g>
            </g>
        </g>
    </g>
</svg>
